<svg data-name="Layer 1" xmlns="http://www.w3.org/2000/svg" viewBox="0 0 500 500"><title>marker</title><path d="M352.62 72.83Q309.8 30 249.27 30T145.92 72.83q-42.82 42.82-42.82 103.35 0 31.12 9.42 51.11l104.21 221A32.89 32.89 0 0 0 230 463.11a36.93 36.93 0 0 0 38.55 0 34.63 34.63 0 0 0 13.56-14.84L386 227.28q9.42-20 9.42-51.11.03-60.52-42.8-103.34zm-51.68 155q-21.41 21.41-51.67 21.41t-51.68-21.41q-21.41-21.42-21.41-51.68t21.41-51.68q21.42-21.41 51.68-21.41t51.67 21.41q21.41 21.41 21.41 51.68t-21.41 51.7z"/></svg>