<svg data-name="Layer 1" xmlns="http://www.w3.org/2000/svg" viewBox="0 0 500 500"><title>twitter</title><path d="M475 110.66a184 184 0 0 1-53.1 14.28q30-18 40.55-50.82a181 181 0 0 1-58.53 22.27q-27.41-29.12-67.38-29.12-38.25 0-65.24 27t-27 65.24a102.35 102.35 0 0 0 2.28 21.13 257 257 0 0 1-106.1-28.44A261.44 261.44 0 0 1 56.4 84.1a92.41 92.41 0 0 0-1.4 90.51 92.12 92.12 0 0 0 30 32.83 91.48 91.48 0 0 1-41.68-11.71v1.14q0 33.41 21 58.67a90.73 90.73 0 0 0 53 31.83 95.54 95.54 0 0 1-24.27 3.14 117.64 117.64 0 0 1-17.42-1.42 92.42 92.42 0 0 0 86.22 64q-50.25 39.39-114.49 39.39A196.33 196.33 0 0 1 25 391.3q64.24 41.4 141.61 41.4 49.11 0 92.21-15.56t73.67-41.69a278.94 278.94 0 0 0 52.67-60.1 268 268 0 0 0 33-70.95A262.09 262.09 0 0 0 429 170.32q0-8-.29-12A193.13 193.13 0 0 0 475 110.66z"/></svg>