<svg style="position: absolute; width: 0; height: 0; overflow: hidden;" version="1.1" xmlns="http://www.w3.org/2000/svg">
<defs>
<symbol id="icon-logo" viewBox="0 0 32 32">
<title>logo</title>
<path d="M3.040 8.252l0.028 1.187h0.056l0.24-1.119 0.847-2.624h1.441l0.791 2.624 0.256 1.116h0.056l0.028-1.216 0.396-5.494h1.78l-1.020 9.891h-1.638l-1.059-3.121-0.325-1.356h-0.070l-0.339 1.356-1.144 3.121h-1.695l-1.017-9.886h1.935z"></path>
<path d="M13.44 8.252l0.028 1.187h0.056l0.24-1.119 0.847-2.624h1.441l0.791 2.624 0.256 1.116h0.052l0.028-1.216 0.396-5.494h1.779l-1.014 9.891h-1.636l-1.059-3.121-0.325-1.356h-0.070l-0.339 1.356-1.144 3.121h-1.696l-1.016-9.886h1.935z"></path>
<path d="M23.84 8.252l0.028 1.187h0.056l0.241-1.119 0.847-2.624h1.441l0.791 2.624 0.256 1.116h0.056l0.028-1.216 0.396-5.494h1.78l-1.019 9.891h-1.638l-1.059-3.121-0.325-1.356h-0.070l-0.339 1.356-1.144 3.121h-1.694l-1.017-9.886h1.935z"></path>
<path d="M2.235 27.716h1.61v-6.78h-1.356v1.709h-1.553v-3.264h7.739v3.264h-1.553v-1.709h-1.344v6.78h1.596v1.553h-5.139z"></path>
<path d="M11.385 19.384h6.272v1.723h-4.337v2.445h4.024v1.723h-4.024v3.997h-1.935z"></path>
<path d="M30.549 20.197q-0.798-0.779-2.205-0.779c-0.285 0.002-0.558 0.051-0.812 0.14-0.27 0.091-0.519 0.214-0.748 0.366q-0.337 0.222-0.588 0.423c-0.174 0.14-0.33 0.279-0.477 0.427-0.148-0.148-0.303-0.287-0.466-0.418q-0.263-0.21-0.611-0.439c-0.217-0.144-0.466-0.268-0.731-0.358-0.259-0.090-0.532-0.14-0.817-0.142q-1.409 0-2.206 0.779t-0.797 2.161c0.003 0.311 0.057 0.609 0.154 0.886 0.087 0.272 0.201 0.523 0.34 0.759 0.132 0.216 0.272 0.416 0.425 0.605q0.23 0.288 0.341 0.401c0.054 0.057 0.111 0.111 0.17 0.161l3.922 3.784c0.071 0.070 0.169 0.113 0.276 0.113s0.205-0.043 0.277-0.113l3.914-3.769q1.439-1.441 1.439-2.827t-0.798-2.161z"></path>
</symbol>
<symbol id="icon-github" viewBox="0 0 32 32">
<title>github</title>
<path d="M28.104 9.252c-1.247-2.132-2.975-3.86-5.041-5.072q-3.291-1.918-7.11-1.918t-7.044 1.882c-2.133 1.247-3.86 2.975-5.072 5.041q-1.918 3.293-1.918 7.11 0 4.587 2.677 8.25t6.916 5.071q0.493 0.092 0.731-0.128c0.145-0.131 0.236-0.321 0.236-0.531 0-0.006-0-0.012-0-0.018q0-0.054-0.009-0.986t-0.009-1.626l-0.42 0.073c-0.253 0.042-0.546 0.067-0.843 0.067-0.060 0-0.12-0.001-0.18-0.003-0.446-0.008-0.884-0.054-1.309-0.135-0.42-0.080-0.833-0.271-1.181-0.542-0.364-0.277-0.643-0.66-0.793-1.103l-0.188-0.437c-0.166-0.355-0.359-0.662-0.583-0.941q-0.386-0.503-0.788-0.686l-0.128-0.092c-0.089-0.065-0.167-0.137-0.236-0.218-0.067-0.075-0.122-0.16-0.163-0.252q-0.058-0.134 0.089-0.217c0.099-0.057 0.278-0.084 0.534-0.084l0.365 0.054q0.365 0.073 0.904 0.438c0.363 0.249 0.66 0.567 0.879 0.936q0.428 0.763 1.022 1.156t1.197 0.393c0.021 0 0.046 0 0.071 0 0.343 0 0.678-0.033 1.003-0.097 0.278-0.060 0.553-0.154 0.811-0.279q0.143-1.215 0.874-1.873c-0.706-0.070-1.346-0.185-1.966-0.348-0.567-0.163-1.137-0.406-1.666-0.713-0.543-0.3-1.032-0.709-1.429-1.196q-0.592-0.74-0.967-1.929t-0.374-2.741q0-2.211 1.444-3.764-0.676-1.664 0.128-3.727 0.53-0.164 1.571 0.246t1.526 0.704q0.484 0.292 0.776 0.493c1.052-0.302 2.26-0.475 3.508-0.475s2.457 0.173 3.601 0.497l0.601-0.461c0.479-0.294 1.033-0.565 1.613-0.782q1.036-0.388 1.548-0.223 0.822 2.065 0.146 3.727 1.443 1.553 1.444 3.764 0 1.553-0.374 2.752t-0.968 1.92c-0.41 0.49-0.901 0.896-1.454 1.203-0.52 0.3-1.090 0.544-1.691 0.714-0.582 0.154-1.218 0.27-1.868 0.335q0.895 0.826 0.895 2.601v3.853c-0 0.005-0 0.012-0 0.018 0 0.209 0.088 0.397 0.228 0.529q0.229 0.219 0.722 0.128 4.239-1.408 6.916-5.071t2.677-8.25q-0.002-3.816-1.884-7.043z"></path>
</symbol>
<symbol id="icon-heart" viewBox="0 0 32 32">
<title>heart</title>
<path d="M29.253 4.901q-2.189-2.138-6.049-2.137c-0.782 0.006-1.531 0.142-2.228 0.387-0.741 0.25-1.425 0.588-2.052 1.005q-0.927 0.609-1.614 1.16c-0.478 0.383-0.905 0.766-1.31 1.17-0.405-0.406-0.832-0.79-1.279-1.151q-0.72-0.575-1.677-1.205c-0.595-0.395-1.279-0.732-2.006-0.977-0.711-0.248-1.46-0.383-2.239-0.389q-3.863 0-6.052 2.137t-2.189 5.927c0.006 0.853 0.153 1.67 0.418 2.431 0.241 0.747 0.554 1.438 0.935 2.084 0.361 0.592 0.748 1.141 1.168 1.661q0.633 0.786 0.934 1.097c0.149 0.157 0.303 0.304 0.466 0.441l10.762 10.384c0.195 0.192 0.463 0.31 0.758 0.31s0.563-0.119 0.759-0.311l10.737-10.343q3.947-3.946 3.947-7.756 0-3.789-2.189-5.928z"></path>
</symbol>
<symbol id="icon-link" viewBox="0 0 32 32">
<title>link</title>
<path d="M29.376 19.287l-3.804-3.799q-1.536-1.536-3.727-1.536-2.229 0-3.801 1.608l-1.608-1.608q1.608-1.571 1.608-3.819 0-2.193-1.517-3.712l-3.764-3.782q-1.516-1.551-3.727-1.551-2.193 0-3.712 1.517l-2.688 2.668q-1.548 1.517-1.548 3.709t1.536 3.727l3.8 3.803q1.536 1.536 3.728 1.536 2.229 0 3.8-1.608l1.608 1.608q-1.608 1.569-1.608 3.816 0 2.193 1.517 3.712l3.764 3.782q1.517 1.553 3.727 1.553 2.193 0 3.712-1.517l2.688-2.668q1.553-1.517 1.553-3.712t-1.538-3.728zM13.952 11.468q-0.055-0.055-0.338-0.347t-0.393-0.393c-0.104-0.091-0.217-0.181-0.334-0.266-0.146-0.111-0.301-0.192-0.469-0.244-0.156-0.043-0.322-0.067-0.495-0.067-0.006 0-0.013 0-0.019 0-0.001-0-0.004-0-0.006-0-0.965 0-1.747 0.782-1.747 1.747 0 0.002 0 0.004 0 0.006-0 0.005-0 0.011-0 0.018 0 0.172 0.023 0.339 0.067 0.497 0.051 0.165 0.133 0.32 0.237 0.456 0.091 0.127 0.181 0.241 0.276 0.349q0.096 0.104 0.389 0.388t0.347 0.338c-0.324 0.349-0.785 0.566-1.296 0.566-0.007 0-0.014-0-0.021-0q-0.748 0-1.241-0.493l-3.801-3.799c-0.316-0.308-0.512-0.737-0.512-1.213 0-0.011 0-0.021 0-0.031-0-0.005-0-0.012-0-0.019 0-0.472 0.196-0.899 0.512-1.203l2.689-2.669c0.317-0.305 0.748-0.493 1.223-0.493 0.007 0 0.014 0 0.021 0s0.018-0 0.029-0c0.475 0 0.905 0.196 1.212 0.512l3.764 3.783c0.316 0.308 0.512 0.737 0.512 1.213 0 0.010-0 0.021-0 0.031q-0.002 0.766-0.605 1.333zM26.89 24.239l-2.688 2.668c-0.314 0.294-0.738 0.475-1.203 0.475-0.014 0-0.028-0-0.041-0q-0.747 0-1.24-0.493l-3.763-3.784c-0.316-0.308-0.512-0.737-0.512-1.212 0-0.011 0-0.021 0-0.031q-0-0.766 0.603-1.332c0.037 0.036 0.149 0.152 0.338 0.347s0.32 0.326 0.393 0.393c0.103 0.091 0.216 0.181 0.334 0.266 0.146 0.111 0.301 0.192 0.468 0.244 0.155 0.043 0.322 0.067 0.494 0.067 0.007 0 0.013-0 0.020-0 0.001 0 0.004 0 0.007 0 0.965 0 1.747-0.782 1.747-1.747 0-0.002 0-0.005 0-0.007 0-0.005 0-0.010 0-0.016 0-0.173-0.023-0.34-0.067-0.499-0.052-0.165-0.133-0.32-0.238-0.456-0.091-0.127-0.181-0.241-0.276-0.349q-0.096-0.104-0.389-0.388t-0.346-0.333c0.32-0.36 0.785-0.585 1.302-0.585 0.005 0 0.009 0 0.014 0 0.008-0 0.019-0 0.030-0 0.475 0 0.904 0.196 1.212 0.512l3.801 3.801c0.316 0.308 0.512 0.737 0.512 1.213 0 0.011-0 0.021-0 0.032 0 0.004 0 0.010 0 0.017 0 0.472-0.196 0.898-0.511 1.202z"></path>
</symbol>
<symbol id="icon-marker" viewBox="0 0 32 32">
<title>marker</title>
<path d="M22.568 4.661q-2.74-2.741-6.614-2.741t-6.614 2.741-2.74 6.614q0 1.992 0.603 3.271l6.669 14.144c0.183 0.401 0.476 0.725 0.84 0.943 0.361 0.223 0.787 0.353 1.243 0.353s0.882-0.129 1.244-0.353c0.366-0.22 0.664-0.544 0.852-0.931l6.655-14.156q0.603-1.28 0.603-3.271 0.002-3.873-2.739-6.614zM19.26 14.581q-1.37 1.37-3.307 1.37t-3.308-1.37-1.37-3.308 1.37-3.308q1.371-1.37 3.308-1.37t3.307 1.37 1.37 3.308-1.37 3.309z"></path>
</symbol>
<symbol id="icon-plus" viewBox="0 0 32 32">
<title>plus</title>
<path d="M21.228 14.796h-4.096v-4.096c0-0.007 0-0.014 0-0.022 0-0.311-0.252-0.563-0.563-0.563-0.008 0-0.016 0-0.023 0l-1.165-0c-0.007-0-0.014-0-0.022-0-0.311 0-0.563 0.252-0.563 0.563 0 0.008 0 0.016 0.001 0.024l-0 4.095h-4.096c-0.007-0-0.015-0-0.023-0-0.311 0-0.563 0.252-0.563 0.563 0 0.008 0 0.016 0 0.023l-0 1.169c-0 0.007-0 0.014-0 0.022 0 0.311 0.252 0.563 0.563 0.563 0.008 0 0.016-0 0.024-0l4.095 0v4.096c-0 0.007-0 0.014-0 0.022 0 0.311 0.252 0.563 0.563 0.563 0.008 0 0.016-0 0.023-0l1.168 0c0.007 0 0.014 0 0.022 0 0.311 0 0.563-0.252 0.563-0.563 0-0.008-0-0.015-0-0.023l0-4.095h4.096c0.007 0 0.014 0 0.022 0 0.311 0 0.563-0.252 0.563-0.563 0-0.008-0-0.016-0-0.023l0-1.168c0-0.007 0-0.015 0-0.023 0-0.311-0.252-0.563-0.563-0.563-0.008 0-0.016 0-0.023 0z"></path>
</symbol>
<symbol id="icon-twitter" viewBox="0 0 32 32">
<title>twitter</title>
<path d="M30.4 7.082c-0.99 0.446-2.139 0.768-3.343 0.909q1.865-1.147 2.54-3.247c-1.078 0.654-2.334 1.149-3.672 1.413q-1.828-1.852-4.386-1.852-2.448 0-4.175 1.728t-1.728 4.175c0.002 0.48 0.055 0.947 0.154 1.396-2.507-0.163-4.827-0.823-6.888-1.907-2.038-1.059-3.829-2.522-5.267-4.285-0.529 0.823-0.827 1.849-0.827 2.946 0 1.032 0.264 2.003 0.729 2.847 0.455 0.827 1.103 1.533 1.883 2.057-0.964-0.022-1.878-0.296-2.675-0.751l0.029 0.088q0 2.138 1.344 3.755c0.842 1.030 2.015 1.761 3.355 2.031-0.429 0.134-0.964 0.207-1.516 0.207-0.396-0.003-0.782-0.036-1.158-0.097 0.823 2.368 2.989 4.052 5.556 4.102q-3.21 2.521-7.322 2.521c-0.016 0-0.035 0-0.054 0-0.485 0-0.964-0.027-1.434-0.081q4.169 2.655 9.121 2.655 3.143 0 5.901-0.996t4.715-2.668c1.293-1.11 2.407-2.376 3.329-3.779 0.913-1.373 1.632-2.88 2.122-4.487 0.469-1.54 0.722-3.171 0.726-4.861q0-0.514-0.019-0.77c1.161-0.848 2.143-1.858 2.935-3.009z"></path>
</symbol>
<symbol id="icon-globe" viewBox="0 0 32 32">
<title>globe</title>
<path d="M28.104 8.973c-1.247-2.132-2.975-3.86-5.041-5.072q-3.291-1.917-7.11-1.917t-7.044 1.882c-2.133 1.247-3.86 2.975-5.072 5.041q-1.918 3.291-1.918 7.11t1.882 7.044c1.247 2.132 2.975 3.86 5.041 5.072q3.291 1.918 7.11 1.918t7.044-1.882c2.133-1.247 3.86-2.975 5.072-5.041q1.917-3.291 1.917-7.11t-1.882-7.044zM17.709 23.4c-0.122-0.146-0.164-0.268-0.128-0.365-0.020 0.071-0.066 0.129-0.127 0.164-0.098-0.102-0.206-0.193-0.324-0.269-0.131-0.085-0.239-0.175-0.335-0.278-0.025-0.037-0.058-0.089-0.101-0.156s-0.097-0.156-0.164-0.265c-0.052-0.081-0.101-0.174-0.141-0.271-0.035-0.091-0.038-0.14-0.013-0.149q-0.347 0.147-1.005-0.201-0.128-0.073-0.384-0.384t-0.53-0.274q-0.091 0.019-0.246 0.064c-0.079 0.026-0.169 0.043-0.264 0.045-0.109-0.007-0.208-0.033-0.299-0.075-0.146-0.062-0.275-0.132-0.396-0.213-0.088-0.060-0.198-0.124-0.314-0.18l-0.253-0.135-0.292-0.146c-0.088-0.047-0.163-0.105-0.228-0.173-0.071-0.067-0.124-0.15-0.154-0.243-0.036-0.123-0.068-0.27-0.090-0.421-0.023-0.196-0.075-0.357-0.152-0.502-0.085-0.133-0.187-0.253-0.305-0.357-0.136-0.123-0.258-0.185-0.367-0.185 0.097 0 0.097-0.082 0-0.246-0.075-0.135-0.16-0.252-0.257-0.357-0.023-0.023-0.096-0.102-0.218-0.237s-0.225-0.25-0.31-0.348c-0.085-0.098-0.158-0.209-0.216-0.329q-0.095-0.201-0.040-0.329c0.012-0.012 0-0.031-0.036-0.054-0.039-0.026-0.084-0.050-0.131-0.071-0.061-0.027-0.113-0.048-0.161-0.066-0.032-0.014-0.069-0.024-0.108-0.027 0.032 0.075 0.060 0.164 0.080 0.256 0.023 0.116 0.058 0.211 0.105 0.298q0.034 0.067 0.308 0.524 0.476 0.768 0.438 1.133c-0.073 0.024-0.122 0.012-0.147-0.036-0.027-0.059-0.047-0.127-0.055-0.198s-0.021-0.134-0.039-0.194q-0.053-0.101-0.281-0.23t-0.284-0.256c0.017-0.002 0.033-0.008 0.046-0.019s0.028-0.016 0.045-0.018q0.019-0.165-0.192-0.421t-0.173-0.365q-0.147-0.109-0.256-0.429t-0.182-0.413c-0.050-0.075-0.111-0.138-0.18-0.191q-0.111-0.083-0.276-0.184t-0.22-0.138c-0.057-0.047-0.105-0.101-0.144-0.161q-0.605-0.734-0.367-0.789-0.237 0.055-0.393-0.356t-0.1-0.63l-0.036-0.018c0.013-0.099 0.020-0.215 0.020-0.331 0-0.034-0.001-0.069-0.002-0.103 0-0.004 0-0.015 0-0.025 0-0.218 0.017-0.433 0.048-0.642q0.045-0.272 0.173-0.272-0.128 0.019-0.192-0.228t-0.009-0.338c0.012-0.036 0.064-0.012 0.164 0.073 0.062 0.049 0.116 0.104 0.163 0.165q0.239-0.126 0.185-0.327-0.036-0.073-0.384-0.384-0.786-0.512-0.804-0.493c0.028-0.040 0.045-0.090 0.045-0.144 0-0.082-0.039-0.155-0.099-0.202q-0.183 0.109-0.21 0.055c-0.024-0.059-0.040-0.127-0.045-0.198-0.012-0.1-0.043-0.155-0.092-0.167-0.088-0.029-0.162-0.079-0.219-0.145 1.068-1.705 2.517-3.079 4.234-4.027 0.159-0.042 0.274-0.049 0.39-0.049 0.025 0 0.050 0 0.075 0.001 0.099 0.013 0.191 0.045 0.274 0.093 0.097 0.058 0.184 0.124 0.262 0.2q0.136 0.128 0.209 0.182 0.036-0.109-0.092-0.329 0.036-0.109 0.402-0.22 0.415-0.056 0.543 0.020c-0.121-0.171-0.241-0.32-0.369-0.461l-0.088 0.095q-0.147-0.128-0.768 0.128c-0.024 0.012-0.085 0.046-0.182 0.1-0.065 0.039-0.143 0.078-0.224 0.113-0.057 0.021-0.108 0.030-0.16 0.030-0.026 0-0.051-0.002-0.076-0.006 0.488-0.273 1.056-0.526 1.647-0.728 0.14 0.029 0.2 0.079 0.256 0.134q0.128 0.119 0.201 0.173c-0.036-0.024-0.064-0.012-0.073 0.036-0.023 0.054-0.037 0.117-0.037 0.183s0.014 0.129 0.038 0.186c0.055 0.079 0.145 0.135 0.248 0.145 0.037 0.003 0.079 0.005 0.122 0.005 0.090 0 0.178-0.009 0.263-0.025 0.075-0.016 0.175-0.029 0.277-0.035l0.189 0.018q0.584 0.055 0.457-0.11c0.053 0.087 0.097 0.187 0.126 0.293 0.034 0.132 0.091 0.239 0.167 0.329q0.091-0.075 0.036-0.257t0-0.256c0.027-0.035 0.065-0.061 0.108-0.073l0.21-0.082q0.119-0.046 0.156-0.064 0.109-0.073-0.147-0.256c-0.042-0.019-0.093-0.037-0.146-0.053-0.088-0.026-0.158-0.051-0.219-0.075-0.074-0.031-0.137-0.064-0.196-0.103-0.050-0.022-0.088-0.077-0.088-0.14 0-0.002 0-0.004 0-0.006 0.017-0.080 0.053-0.151 0.101-0.21q0.109-0.090 0.356-0.072c0.137 0.003 0.266 0.036 0.38 0.093q0.488 0.272 0.141 0.491c0.164 0.024 0.312 0.076 0.445 0.149q0.249 0.125 0.194 0.271 0.146-0.274 0.292-0.275c0.061 0.012 0.119 0.095 0.173 0.247 0.030 0.095 0.064 0.177 0.104 0.255 0.094 0.125 0.188 0.156 0.289 0.083 0.115-0.092 0.215-0.198 0.298-0.315q0.158-0.215 0.177-0.197c-0.122-0.049-0.134-0.097-0.036-0.146q0.273-0.164 0.493-0.091c0.057 0.047 0.105 0.101 0.144 0.161q0.165 0.332-0.053 0.314c0.087 0.074 0.142 0.183 0.142 0.305 0 0.021-0.002 0.042-0.005 0.063-0.018 0.144-0.113 0.211-0.283 0.199-0.1-0.012-0.19-0.044-0.268-0.093-0.073-0.044-0.162-0.079-0.257-0.098q-0.097-0.010-0.261 0.1c-0.067 0.090-0.13 0.191-0.186 0.298-0.066 0.131-0.136 0.233-0.218 0.324q-0.273 0.273-0.913 0.2c0.036 0 0.033 0.036-0.009 0.109-0.057 0.094-0.114 0.174-0.176 0.25q-0.107 0.133-0.125 0.152c-0.105 0.115-0.181 0.257-0.218 0.414q-0.001 0.043-0.020 0.253c-0.005 0.117-0.032 0.226-0.075 0.326q0.222-0.061 0.349 0.214 0.109 0.256 0 0.274 0.603-0.091 1.060 0.073 0.658 0.237 0.749 0.475 0.109-0.164 0.529-0.019c0.109 0.061 0.207 0.244 0.292 0.548 0.048 0.184 0.133 0.343 0.248 0.476q0.173 0.199 0.373 0.108l0.054-0.036c0.049-0.024 0.088-0.045 0.118-0.064 0.038-0.023 0.071-0.047 0.102-0.074 0.028-0.019 0.050-0.047 0.063-0.080 0.001-0.005 0.002-0.010 0.002-0.014 0-0.024-0.011-0.045-0.028-0.060-0.089-0.079-0.155-0.181-0.191-0.297-0.018-0.047-0.028-0.095-0.028-0.146 0-0.073 0.020-0.141 0.055-0.199 0.083-0.084 0.179-0.157 0.285-0.215q0.244-0.15 0.299-0.296c0.049-0.158-0.012-0.289-0.182-0.393s-0.256-0.198-0.256-0.284q0-0.092 0.118-0.22c0.079-0.085 0.113-0.164 0.1-0.237-0.012-0.085-0.035-0.162-0.066-0.234-0.028-0.068-0.054-0.154-0.070-0.243-0-0.083 0.031-0.151 0.081-0.2q0.128-0.073 0.603 0.009t0.621 0.173c0.067 0.038 0.145 0.075 0.226 0.106 0.136 0.053 0.241 0.105 0.341 0.165 0.081 0.049 0.133 0.101 0.145 0.149h-0.091c0.078 0.063 0.134 0.152 0.154 0.253 0.019 0.101-0.026 0.174-0.136 0.222 0.013-0.001 0.028-0.002 0.043-0.002 0.091 0 0.176 0.021 0.253 0.058q0.289 0.108 0.015 0.199c0.042-0.014 0.095-0.026 0.148-0.036 0.065-0.010 0.118-0.029 0.164-0.057 0.033-0.018 0.062-0.039 0.090-0.063 0.023-0.021 0.050-0.040 0.080-0.053 0.025-0.008 0.053-0.014 0.081-0.019 0.009-0.001 0.017-0.002 0.024-0.002 0.033 0 0.064 0.011 0.089 0.029 0.012-0 0.039-0.031 0.082-0.092s0.088-0.122 0.137-0.182 0.091-0.092 0.128-0.092c0.040 0.001 0.075 0.018 0.1 0.045 0.029 0.029 0.053 0.062 0.072 0.098 0.020 0.039 0.038 0.078 0.056 0.121s0.033 0.076 0.045 0.1c0.040 0.079 0.099 0.144 0.172 0.191 0.076 0.049 0.135 0.114 0.174 0.19 0.013 0.039 0.038 0.131 0.074 0.277 0.020 0.117 0.072 0.22 0.146 0.302 0.076 0.062 0.168 0.109 0.268 0.135 0.021 0.004 0.039 0.006 0.057 0.006 0.040 0 0.079-0.008 0.114-0.023 0.041-0.014 0.090-0.023 0.141-0.023 0.024 0 0.047 0.002 0.070 0.006 0.053 0.012 0.080 0.060 0.080 0.146q0.109-0.109 0.109-0.146c0.005 0.143 0.049 0.275 0.121 0.387 0.062 0.094 0.172 0.137 0.318 0.125l-0.037 0.402q-0.054 0.091-0.274 0.137c-0.103 0.016-0.195 0.044-0.281 0.085q-0.048 0.016-0.259 0.217c-0.14 0.134-0.198 0.213-0.173 0.237q-0.31-0.348-0.932-0.201-0.694 0.109-0.95 0.22c-0.156 0.069-0.289 0.162-0.402 0.274-0.025 0.037-0.046 0.079-0.063 0.124q-0.047 0.113-0.092 0.205c-0.031 0.061-0.058 0.092-0.082 0.092 0.074-0.012 0.156-0.070 0.246-0.173 0.052-0.065 0.109-0.122 0.171-0.172q0.477-0.312 0.789-0.219 0.402 0.109 0.128 0.292c-0.024 0.024-0.088 0.033-0.192 0.028-0.023-0.003-0.050-0.005-0.078-0.005-0.047 0-0.093 0.005-0.137 0.014 0.108 0.020 0.2 0.055 0.284 0.102 0.038 0.016 0.068 0.058 0.068 0.107 0 0.024-0.007 0.046-0.019 0.064q0.292 0.164 0.11 0.365c-0.121 0.127-0.291 0.207-0.48 0.207-0.030 0-0.061-0.002-0.090-0.006q0.058 0 0.003 0.073l-0.311 0.201q-0.036 0.018-0.237 0.092c-0.108 0.032-0.2 0.089-0.274 0.164-0.035 0.055-0.056 0.122-0.056 0.194 0 0.009 0 0.018 0.001 0.026 0 0.007 0 0.017 0 0.027 0 0.068-0.007 0.134-0.020 0.197-0.011 0.042-0.063 0.055-0.145 0.030q-0.055 0.109-0.338 0.173t-0.374 0.192c0.031 0.037 0.050 0.084 0.050 0.137 0 0.062-0.026 0.117-0.069 0.156q-0.22 0.183-0.384-0.036c-0.070 0.037-0.121 0.103-0.137 0.181-0.020 0.085-0.070 0.155-0.136 0.202 0.084 0.134 0.072 0.232-0.038 0.293 0.031 0.008 0.058 0.020 0.083 0.037 0.052 0.030 0.097 0.061 0.139 0.093 0.022 0.021 0.052 0.040 0.086 0.052-0.044 0.111-0.108 0.165-0.193 0.165q0.109 0.292-0.274 0.64c-0.065 0.059-0.141 0.108-0.223 0.144-0.11 0.051-0.204 0.090-0.289 0.121-0.056 0.016-0.104 0.038-0.148 0.065-0.107 0.093-0.198 0.205-0.268 0.33-0.037 0.063-0.056 0.131-0.056 0.204 0 0.050 0.009 0.098 0.027 0.143 0.042 0.107 0.155 0.18 0.338 0.217l0.018 0.146v0.329l0.019 0.147q0.019 0.128 0.028 0.228c0.003 0.038 0.005 0.083 0.005 0.128s-0.002 0.090-0.005 0.134c-0.005 0.098-0.033 0.155-0.082 0.168-0.013 0.002-0.028 0.003-0.044 0.003-0.058 0-0.112-0.015-0.159-0.040q-0.143-0.071-0.347-0.802c-0.046-0.168-0.121-0.315-0.221-0.441-0.041 0.050-0.091 0.089-0.147 0.119-0.045 0.020-0.076 0.023-0.094 0.010-0.037-0.027-0.070-0.054-0.101-0.083-0.037-0.034-0.079-0.067-0.123-0.097-0.097-0.049-0.206-0.081-0.32-0.093-0.156-0.025-0.251-0.055-0.287-0.092q-0.439 0.33-0.531-0.164c-0.010 0.033-0.016 0.071-0.016 0.11 0 0.049 0.009 0.096 0.026 0.139 0.015 0.044 0.031 0.102 0.043 0.162q-0.126 0.247-0.4 0.046-0.109-0.109-0.502-0.028t-0.521 0.028c0.012 0 0.036 0.018 0.073 0.055 0.027 0.017 0.051 0.035 0.073 0.055-0.009 0.042-0.028 0.079-0.056 0.109-0.014 0.017-0.036 0.028-0.060 0.028-0.005 0-0.009-0-0.013-0.001-0.012-0.003-0.026-0.005-0.041-0.005s-0.029 0.002-0.043 0.005c-0.030 0.005-0.057 0.015-0.083 0.027-0.066 0.056-0.126 0.119-0.179 0.188-0.050 0.069-0.104 0.126-0.165 0.175 0.057 0.133 0.094 0.286 0.099 0.448q-0.010 0.157-0.055 0.459c-0.025 0.143-0.042 0.31-0.045 0.481 0.011 0.252 0.074 0.483 0.178 0.689q0.169 0.374 0.406 0.52 0.128 0.073 0.438 0.091c0.207 0.012 0.353 0 0.438-0.036 0.066-0.030 0.121-0.074 0.164-0.127 0.042-0.061 0.074-0.131 0.092-0.207q0.037-0.141 0.056-0.196 0.128-0.348 0.475-0.365c0.147-0.012 0.253 0.003 0.32 0.045 0.051 0.028 0.085 0.081 0.085 0.142 0 0.011-0.001 0.022-0.003 0.033-0.016 0.085-0.041 0.162-0.075 0.233-0.034 0.074-0.080 0.162-0.135 0.259-0.039 0.063-0.073 0.136-0.098 0.212-0.030 0.123-0.052 0.264-0.065 0.407-0.010 0.131-0.026 0.24-0.050 0.347 0.065-0.002 0.136 0.005 0.209 0.005 0.024 0 0.048-0.001 0.071-0.002 0.001-0.044 0.010-0.084 0.025-0.122 0.010-0.026 0.020-0.059 0.026-0.094 0.064 0.094 0.171 0.158 0.292 0.161 0.014 0.002 0.030 0.004 0.047 0.004 0.107 0 0.199-0.060 0.246-0.148q0.038 0.054 0.22 0.273t0.201 0.365c0.012 0.049 0.036 0.128 0.073 0.238 0.024 0.054 0.039 0.117 0.039 0.183 0 0.016-0.001 0.032-0.002 0.047-0.012 0.040-0.073 0.062-0.182 0.062-0.004-0.001-0.008-0.001-0.012-0.001-0.036 0-0.067 0.023-0.079 0.055-0.006 0.021-0.010 0.045-0.010 0.069s0.003 0.048 0.010 0.070c0.013 0.060 0.029 0.112 0.048 0.162 0.021 0.053 0.045 0.104 0.073 0.153 0.017 0.023 0.032 0.056 0.042 0.092q0.329 0.605 0.897 0.331 0 0.53-0.256 0.584c-0.099 0.023-0.209-0.038-0.33-0.184zM17.981 27.528c-0.020-0.087-0.033-0.187-0.035-0.29-0.013-0.099 0.030-0.23 0.128-0.394s0.146-0.289 0.146-0.374q-0.292-0.073-0.22-0.475 0.036-0.275 0.53-0.731 0.349-0.311 0.221-0.879c-0.043-0.199-0.075-0.437-0.091-0.68-0.016-0.256-0.042-0.476-0.079-0.692 0.005 0.073 0.063 0.107 0.179 0.137s0.186 0.070 0.21 0.118c0.034-0.057 0.065-0.124 0.089-0.193 0.031-0.091 0.068-0.164 0.113-0.231 0.042-0.050 0.094-0.094 0.151-0.13 0.047-0.034 0.097-0.067 0.15-0.097 0.071-0.043 0.124-0.082 0.174-0.125q0.126-0.099 0.208-0.153c0.063-0.039 0.137-0.068 0.216-0.081 0.019-0.006 0.036-0.009 0.054-0.009 0.062 0 0.116 0.037 0.141 0.089q0.092 0.111-0.036 0.339t0 0.32c0.018-0.069 0.031-0.151 0.036-0.234 0.004-0.11 0.045-0.205 0.11-0.279 0.054-0.061 0.126-0.106 0.207-0.127 0.019-0.004 0.038-0.006 0.058-0.006 0.047 0 0.091 0.012 0.129 0.034 0.072 0.041 0.135 0.084 0.194 0.13 0.053 0.043 0.12 0.078 0.194 0.097q0.277 0.092 0.661 0.403c-0.012-0.012-0.012-0.028 0-0.046 0.019-0.024 0.044-0.042 0.072-0.055 0.038-0.018 0.071-0.037 0.102-0.056 0.029-0.017 0.062-0.033 0.097-0.044l0.059-0.020c0.008 0 0.018 0.001 0.028 0.001 0.055 0 0.108-0.007 0.158-0.020 0.005-0.001 0.017-0.002 0.028-0.002 0.046 0 0.089 0.015 0.123 0.040 0.053 0.027 0.098 0.054 0.14 0.084 0.020 0.015 0.060 0.049 0.124 0.098 0.047 0.036 0.089 0.072 0.129 0.11 0.036 0.024 0.103 0.063 0.2 0.127s0.174 0.109 0.228 0.146c0.060 0.043 0.11 0.098 0.145 0.161 0.033 0.055 0.052 0.118 0.052 0.186 0 0.019-0.002 0.038-0.004 0.057 0.171 0.040 0.317 0.090 0.457 0.151 0.048 0.026 0.125 0.049 0.207 0.057 0.089 0.006 0.167 0.036 0.232 0.083q-2.654 2.797-6.417 3.454z"></path>
</symbol>
</defs>
</svg>
