<svg data-name="Layer 1" xmlns="http://www.w3.org/2000/svg" viewBox="0 0 500 500"><title>globe</title><path d="M439.13 140.2a218.35 218.35 0 0 0-79.8-79.8Q308.94 31 249.27 31T139.21 60.41a218.29 218.29 0 0 0-79.8 79.8Q30 190.6 30 250.27t29.41 110.06a218.4 218.4 0 0 0 79.8 79.8q50.4 29.41 110.06 29.41t110.07-29.41a218.29 218.29 0 0 0 79.8-79.8q29.4-50.4 29.4-110.06T439.13 140.2zM276.7 365.63c-1.91-2.28-2.57-4.19-2-5.71a4.19 4.19 0 0 1-2 2.57 27.23 27.23 0 0 0-5.14-4.28 26.94 26.94 0 0 1-5.14-4.29c-.38-.57-.9-1.38-1.57-2.42s-1.52-2.43-2.57-4.14a28.76 28.76 0 0 1-2.28-4.43c-.47-1.24-.52-2-.14-2.14q-5.42 2.29-15.7-3.14-2-1.14-6-6t-8.28-4.28q-1.42.29-3.85 1a14.93 14.93 0 0 1-4.14.71 13 13 0 0 1-4.57-1.14 36.81 36.81 0 0 1-6.14-3.28 40.92 40.92 0 0 0-5.28-3l-3.71-2-4.57-2.28a14 14 0 0 1-3.57-2.71 9 9 0 0 1-2.42-3.86 55 55 0 0 1-1.43-6.81 21.33 21.33 0 0 0-2.28-7.42 25.74 25.74 0 0 0-4.85-5.71c-2.09-1.9-4-2.86-5.71-2.86 1.52 0 1.52-1.28 0-3.85a28.92 28.92 0 0 0-4-5.56c-.38-.38-1.52-1.62-3.43-3.72s-3.52-3.9-4.85-5.43a22.82 22.82 0 0 1-3.43-5.28q-1.42-3-.57-5c.19-.19 0-.48-.57-.85a14.79 14.79 0 0 0-2.14-1.14c-.86-.38-1.67-.71-2.42-1a5.62 5.62 0 0 0-1.71-.43 21.82 21.82 0 0 1 1.29 4.14 16.44 16.44 0 0 0 1.57 4.43q.57 1.14 4.85 8.27 7.43 12 6.85 17.71c-1.14.38-1.91.19-2.29-.57a10.39 10.39 0 0 1-.86-3.14 18 18 0 0 0-.57-2.85q-.86-1.71-4.43-3.72t-4.43-4a1.33 1.33 0 0 0 .71-.29 1.38 1.38 0 0 1 .71-.28q.29-2.57-3-6.57t-2.71-5.71q-2.29-1.71-4-6.71t-2.84-6.46a12.21 12.21 0 0 0-2.85-3q-1.71-1.28-4.28-2.85t-3.44-2.15a11 11 0 0 1-2.28-2.56q-9.42-11.42-5.71-12.28-3.71.86-6.14-5.57t-1.57-9.85l-.57-.28a42.33 42.33 0 0 0 .29-6.71 66 66 0 0 1 .71-10.14Q116 190 118 190q-2 .29-3-3.57t-.14-5.28c.19-.57 1-.19 2.57 1.14a14.61 14.61 0 0 1 2.57 2.61q3.71-2 2.86-5.14-.57-1.14-6-6-12.28-8-12.56-7.71a4 4 0 0 0-.86-5.42q-2.85 1.71-3.28.86a11.06 11.06 0 0 1-.71-3.14c-.19-1.52-.67-2.38-1.43-2.57a7.54 7.54 0 0 1-3.43-2.28 180.18 180.18 0 0 1 67.09-63.38 45.69 45.69 0 0 1 6.28-.28 11.41 11.41 0 0 1 4.28 1.43 22.53 22.53 0 0 1 4.14 3.14q2.14 2 3.28 2.85.57-1.71-1.43-5.14.57-1.71 6.28-3.43 6.49-.87 8.49.31a75.11 75.11 0 0 0-5.71-7.14l-1.43 1.42q-2.29-2-12 2c-.38.19-1.33.72-2.85 1.57a33.38 33.38 0 0 1-3.71 1.85 7 7 0 0 1-3.43.29 161.74 161.74 0 0 1 26.84-11.71 28.19 28.19 0 0 1 2.85 2.42q2 1.86 3.14 2.71c-.57-.38-1-.19-1.14.57a7.36 7.36 0 0 0 0 5.71 5.3 5.3 0 0 0 3.91 2.31 21.26 21.26 0 0 0 5.85-.29 35.56 35.56 0 0 1 4.57-.57l2.86.29q9.13.86 7.14-1.72a18.33 18.33 0 0 1 2 4.71 12.67 12.67 0 0 0 2.57 5q1.43-1.15.57-4t0-4a3.25 3.25 0 0 1 1.71-1.14L230 88q1.86-.72 2.43-1 1.71-1.14-2.29-4a19.5 19.5 0 0 0-2.42-.86c-1.24-.37-2.33-.76-3.28-1.14a18.14 18.14 0 0 1-3-1.57 2.44 2.44 0 0 1-1.44-2.32 7.72 7.72 0 0 1 1.57-3.28q1.71-1.42 5.57-1.14a14.13 14.13 0 0 1 5.86 1.42q7.71 4.28 2.29 7.71a20.48 20.48 0 0 1 6.85 2.28q4 2 3.14 4.29 2.28-4.28 4.57-4.29c.95.19 1.86 1.48 2.71 3.86a23.44 23.44 0 0 0 1.57 3.85c1.53 2.09 3 2.57 4.57 1.42a24.08 24.08 0 0 0 4.71-5q2.42-3.28 2.71-3c-1.9-.76-2.1-1.52-.57-2.28q4.27-2.57 7.71-1.42a10.82 10.82 0 0 1 2.28 2.56q2.56 5.15-.85 4.86a6.23 6.23 0 0 1 2.14 5.71c-.29 2.28-1.77 3.33-4.43 3.14a10.13 10.13 0 0 1-4.15-1.43 12.83 12.83 0 0 0-4.14-1.57q-1.43-.15-4 1.57a36.13 36.13 0 0 0-3 4.85 21.86 21.86 0 0 1-3.29 4.85q-4.28 4.28-14.28 3.14c.57 0 .52.57-.14 1.71a32.93 32.93 0 0 1-2.71 3.85q-1.71 2.14-2 2.43a14.57 14.57 0 0 0-3.43 6.57q0 .57-.29 3.85a14.36 14.36 0 0 1-1.14 5q3.43-.86 5.42 3.43 1.71 4 0 4.28 9.42-1.42 16.57 1.14 10.28 3.71 11.71 7.42 1.71-2.57 8.27-.29c1.71.95 3.23 3.81 4.57 8.56a18.45 18.45 0 0 0 3.85 7.42q2.72 3.14 5.85 1.71l.85-.57c.76-.38 1.38-.71 1.85-1a12.07 12.07 0 0 0 1.57-1.14 2.71 2.71 0 0 0 1-1.28 1.21 1.21 0 0 0-.42-1.14 10.31 10.31 0 0 1-3-4.71 6 6 0 0 1 .43-5.29 19.08 19.08 0 0 1 4.56-3.43q3.72-2.29 4.57-4.57c.77-2.47-.19-4.52-2.85-6.14s-4-3.09-4-4.43q0-1.43 1.85-3.43c1.24-1.33 1.77-2.57 1.57-3.71a13.87 13.87 0 0 0-1-3.57 19.65 19.65 0 0 1-1.14-4 4.25 4.25 0 0 1 1.28-3q2-1.14 9.42.14t9.71 2.71a25.33 25.33 0 0 0 3.71 1.71 34.38 34.38 0 0 1 5 2.43c1.42.86 2.23 1.66 2.42 2.42h-1.42a6.85 6.85 0 0 1 2.42 4c.29 1.53-.42 2.67-2.14 3.43a9 9 0 0 1 4.57.86q4.57 1.71.29 3.14a18.32 18.32 0 0 1 2.42-.57 6.57 6.57 0 0 0 2.43-.86 8 8 0 0 0 1.42-1 4.7 4.7 0 0 1 1.29-.85 9.12 9.12 0 0 1 1.29-.29 2.33 2.33 0 0 1 1.7.43c.2 0 .62-.48 1.29-1.43s1.38-1.9 2.14-2.85 1.42-1.43 2-1.43a2.17 2.17 0 0 1 1.56.71 6 6 0 0 1 1.14 1.57c.29.57.57 1.19.86 1.85s.52 1.19.71 1.57a7.59 7.59 0 0 0 2.71 3 7.66 7.66 0 0 1 2.71 3c.19.57.57 2 1.14 4.29a9.4 9.4 0 0 0 2.28 4.71 11.15 11.15 0 0 0 4.28 2.14 4.49 4.49 0 0 0 2.57-.28 6.84 6.84 0 0 1 3.28-.29c.86.19 1.29.95 1.29 2.28q1.71-1.71 1.71-2.28a12 12 0 0 0 1.86 6c1 1.52 2.71 2.19 5 2l-.58 6.28q-.85 1.42-4.28 2.14a15.6 15.6 0 0 0-4.29 1.29q-.85.29-4.14 3.43c-2.19 2.1-3.09 3.33-2.71 3.71q-4.85-5.43-14.56-3.14-10.85 1.71-14.85 3.43a20.77 20.77 0 0 0-6.28 4.28 9 9 0 0 0-1 2q-.71 1.71-1.42 3.14c-.48.95-.9 1.43-1.28 1.43 1.15-.18 2.43-1.09 3.85-2.71a16.53 16.53 0 0 1 2.71-2.71q7.42-4.85 12.29-3.4 6.28 1.71 2 4.57c-.37.38-1.38.52-3 .43a10.29 10.29 0 0 0-3.29.14 15.08 15.08 0 0 1 4.29 1.57 1.85 1.85 0 0 1 .85 2.71q4.56 2.57 1.71 5.71a10.32 10.32 0 0 1-8.85 3.14q.86 0 0 1.14l-4.86 3.14q-.57.28-3.71 1.43a9.69 9.69 0 0 0-4.28 2.57 5.71 5.71 0 0 0-.86 3.43 15.16 15.16 0 0 1-.29 3.43c-.19.76-1 .95-2.28.57q-.86 1.71-5.28 2.71t-5.85 3a3.3 3.3 0 0 1-.29 4.57q-3.43 2.86-6-.57a4.12 4.12 0 0 0-2.14 2.86 5.3 5.3 0 0 1-2.14 3.14c1.33 2.09 1.14 3.62-.57 4.57a3.94 3.94 0 0 1 1.28.57 21.46 21.46 0 0 1 2.14 1.43 4.15 4.15 0 0 0 1.42.86c-.71 1.72-1.71 2.57-3.05 2.57q1.71 4.57-4.28 10a13.11 13.11 0 0 1-3.57 2.28c-1.63.76-3.1 1.38-4.43 1.85a9.31 9.31 0 0 0-2.28 1 19.35 19.35 0 0 0-4.28 5.28 6.17 6.17 0 0 0-.43 5.28c.67 1.72 2.43 2.85 5.29 3.43l.28 2.28v5.14l.29 2.29q.29 2 .43 3.57a28.33 28.33 0 0 1 0 4c-.09 1.62-.52 2.52-1.28 2.71a5.2 5.2 0 0 1-3.14-.57q-2.26-1.13-5.45-12.54a19.06 19.06 0 0 0-3.43-6.85A8.6 8.6 0 0 1 268 267c-.66.29-1.14.34-1.42.14a18.8 18.8 0 0 1-1.57-1.28 19.07 19.07 0 0 0-2-1.57 15.15 15.15 0 0 0-5-1.42c-2.37-.38-3.86-.86-4.42-1.43q-6.86 5.15-8.29-2.56a6 6 0 0 0 .14 3.85 22.4 22.4 0 0 1 .71 2.71q-2 3.72-6.28.57-1.71-1.71-7.85-.43t-8.14.43c.19 0 .57.28 1.14.86a7.79 7.79 0 0 1 1.14.85 3.59 3.59 0 0 1-.86 1.71 1.21 1.21 0 0 1-1.14.43 2.9 2.9 0 0 0-1.29 0 4.82 4.82 0 0 0-1.29.42 17.63 17.63 0 0 0-2.85 3 14.21 14.21 0 0 1-2.57 2.71 18.83 18.83 0 0 1 1.57 7q-.15 2.43-.86 7.14a52.76 52.76 0 0 0-.71 7.57 26.25 26.25 0 0 0 2.71 10.56q2.71 6 6.42 8.28 2 1.14 6.85 1.42c3.24.19 5.52 0 6.85-.57a7 7 0 0 0 2.57-2 9.66 9.66 0 0 0 1.44-3.29q.57-2.14.86-3 2-5.43 7.42-5.71c2.29-.19 3.95.05 5 .71a2.51 2.51 0 0 1 1.28 2.71 14.36 14.36 0 0 1-1.14 3.57c-.57 1.24-1.29 2.61-2.14 4.14a15.78 15.78 0 0 0-1.56 3.43 47.59 47.59 0 0 0-1 6.43 35.32 35.32 0 0 1-.72 5 16.62 16.62 0 0 0 4.28.28 6.78 6.78 0 0 1 .43-1.86 8.12 8.12 0 0 0 .43-1.57 5.64 5.64 0 0 0 4.57 2.57 4.34 4.34 0 0 0 4.57-2.28q.58.86 3.43 4.29t3.14 5.71c.19.77.57 2 1.14 3.72a7.08 7.08 0 0 1 .57 3.57c-.19.66-1.14 1-2.85 1a1.31 1.31 0 0 0-1.42.86 3.89 3.89 0 0 0 0 2.14 19.19 19.19 0 0 0 .71 2.43 18.58 18.58 0 0 0 1.14 2.43 5.27 5.27 0 0 1 .72 1.57q5.13 9.41 14 5.14 0 8.28-4 9.13c-1.55.36-3.26-.6-5.16-2.88zm4.26 64.5a22.86 22.86 0 0 1-.55-4.56c-.2-1.53.47-3.57 2-6.14s2.28-4.52 2.28-5.85q-4.57-1.14-3.43-7.42.57-4.29 8.28-11.42Q295 389.88 293 381a78.94 78.94 0 0 1-1.43-10.85 97.14 97.14 0 0 0-1.14-10c0 .57.9 1.09 2.72 1.57s2.9 1.1 3.28 1.85a17.29 17.29 0 0 0 1.43-3.14 14.52 14.52 0 0 1 1.7-3.43 9.72 9.72 0 0 1 2.44-2.1 28 28 0 0 1 2.43-1.57 21.87 21.87 0 0 0 2.56-1.85q2-1.57 3.29-2.42a9.49 9.49 0 0 1 3.43-1.28 2.44 2.44 0 0 1 3 1.28q1.43 1.72-.57 5.28t0 5a21.28 21.28 0 0 0 .57-3.72 6.91 6.91 0 0 1 1.71-4.29 6.49 6.49 0 0 1 3.29-2 4.07 4.07 0 0 1 2.85.43 25.39 25.39 0 0 1 3 2 8 8 0 0 0 3.14 1.57q4.28 1.43 10.28 6.28c-.19-.19-.19-.43 0-.72a3 3 0 0 1 1.14-.86c.57-.28 1.09-.57 1.57-.86a8 8 0 0 1 1.57-.71l.86-.29a9.81 9.81 0 0 0 2.85-.29 3.28 3.28 0 0 1 2.43.58 19.46 19.46 0 0 1 2.14 1.28c.38.28 1 .8 2 1.57a25.08 25.08 0 0 1 2 1.71c.58.38 1.62 1 3.14 2s2.72 1.71 3.57 2.28a7.5 7.5 0 0 1 2.28 2.56 5.63 5.63 0 0 1 .72 3.72 45.07 45.07 0 0 1 6.85 2.28 10.25 10.25 0 0 0 3.57 1 6.88 6.88 0 0 1 3.57 1.28Q339.79 419.86 281 430.13z"/></svg>