<svg data-name="Layer 1" xmlns="http://www.w3.org/2000/svg" viewBox="0 0 500 500"><title>heart</title><path d="M457.08 76.58q-34.2-33.4-94.52-33.39A107.39 107.39 0 0 0 328.5 49a137.67 137.67 0 0 0-32.31 15.62q-15 9.83-25.72 18.45A248.85 248.85 0 0 0 250 101.35 249.18 249.18 0 0 0 229.53 83q-10.78-8.61-25.72-18.45A137.87 137.87 0 0 0 171.5 49a107.41 107.41 0 0 0-34.06-5.79q-60.32 0-94.52 33.39t-34.2 92.61A118 118 0 0 0 15 206.37 163 163 0 0 0 29.45 239a238.26 238.26 0 0 0 18.31 26.26Q58 278 62.71 282.85a88.85 88.85 0 0 0 7.41 7L238.15 452a16.9 16.9 0 0 0 23.7 0l167.77-161.61q61.67-61.66 61.67-121.18 0-59.21-34.21-92.63z"/></svg>