<svg data-name="Layer 1" xmlns="http://www.w3.org/2000/svg" viewBox="0 0 500 500"><title>link</title><path d="M459 301.36L399.57 242q-24-24-58.24-24-34.83 0-59.39 25.13L256.82 218q25.13-24.55 25.13-59.67 0-34.26-23.7-58l-58.82-59.1Q175.74 17 141.19 17q-34.26 0-58 23.7l-42 41.68Q17 106.09 17 140.34t24 58.24L100.37 258q24 24 58.25 24 34.83 0 59.38-25.13L243.12 282Q218 306.51 218 341.63q0 34.26 23.7 58l58.82 59.09q23.7 24.27 58.24 24.27 34.27 0 58-23.7l42-41.68q24.27-23.71 24.27-58T459 301.36zM218 179.18q-.86-.86-5.28-5.42t-6.14-6.14a69 69 0 0 0-5.43-4.29 23 23 0 0 0-7.28-3.71 29.09 29.09 0 0 0-7.85-1 27.29 27.29 0 0 0-27.4 27.38 29.08 29.08 0 0 0 1 7.85 22.92 22.92 0 0 0 3.71 7.28 68.68 68.68 0 0 0 4.28 5.43q1.57 1.71 6.14 6.14t5.42 5.28a27.6 27.6 0 0 1-20.56 8.85q-11.71 0-19.41-7.71l-59.39-59.36a26.44 26.44 0 0 1-8-19.42 26.09 26.09 0 0 1 8-19.13l42-41.69a27.57 27.57 0 0 1 19.42-7.7 26.43 26.43 0 0 1 19.41 8l58.81 59.1a26.43 26.43 0 0 1 8 19.41q-.03 11.99-9.45 20.85zm202.15 199.55l-42 41.69a27.52 27.52 0 0 1-19.42 7.42q-11.71 0-19.41-7.71L280.53 361a26.42 26.42 0 0 1-8-19.41q0-12 9.42-20.84c.58.57 2.33 2.38 5.28 5.42s5 5.09 6.14 6.14a67.78 67.78 0 0 0 5.42 4.29 22.88 22.88 0 0 0 7.28 3.71 29 29 0 0 0 7.85 1 27.29 27.29 0 0 0 27.41-27.4 29.27 29.27 0 0 0-1-7.85 22.84 22.84 0 0 0-3.72-7.28 68.93 68.93 0 0 0-4.28-5.43q-1.57-1.7-6.14-6.14t-5.4-5.21a27.2 27.2 0 0 1 20.55-9.14 26.4 26.4 0 0 1 19.41 8l59.39 59.38a26.44 26.44 0 0 1 8 19.42 26.08 26.08 0 0 1-7.99 19.07z"/></svg>