<svg data-name="Layer 1" xmlns="http://www.w3.org/2000/svg" viewBox="0 0 500 500"><title>logo</title><path d="M47.5 128.94l.44 18.54h.88L52.57 130l13.24-41h22.51l12.36 41 4 17.43h.88l.44-19 6.18-85.84H140l-15.93 154.54h-25.6l-16.55-48.77-5.08-21.18h-1.1l-5.3 21.18-17.87 48.77H26.09L10.2 42.66h30.23zm162.5 0l.44 18.54h.88l3.75-17.48 13.24-41h22.51l12.36 41 4 17.43h.82l.44-19 6.18-85.84h27.8l-15.85 154.54H261l-16.55-48.77-5.08-21.18h-1.1l-5.3 21.18-17.88 48.77h-26.5L172.71 42.66h30.23zm162.5 0l.44 18.54h.88l3.76-17.48 13.24-41h22.51l12.36 41 4 17.43h.88l.44-19 6.18-85.84H465l-15.92 154.54h-25.6l-16.55-48.77-5.08-21.18h-1.1l-5.3 21.18-17.88 48.77H351.1L335.21 42.66h30.23zM34.92 433.07h25.15V327.14H38.89v26.7H14.62v-51h120.92v51h-24.27v-26.7h-21v105.93h24.94v24.27H34.92zm142.97-130.2h98v26.92h-67.77V368H271v26.92h-62.88v62.45h-30.23zm299.44 12.71q-12.47-12.17-34.45-12.17a39.14 39.14 0 0 0-12.42 2.11 50.18 50.18 0 0 0-11.78 5.69q-5.45 3.58-9.37 6.72a90.7 90.7 0 0 0-7.46 6.67 90.82 90.82 0 0 0-7.46-6.67q-3.93-3.14-9.37-6.72a50.25 50.25 0 0 0-11.78-5.69 39.15 39.15 0 0 0-12.42-2.11q-22 0-34.45 12.17t-12.46 33.76a43 43 0 0 0 2.31 13.54 59.41 59.41 0 0 0 5.25 11.88 86.84 86.84 0 0 0 6.67 9.57q3.73 4.66 5.45 6.43a32.38 32.38 0 0 0 2.7 2.55l61.24 59.09a6.16 6.16 0 0 0 8.64 0l61.15-58.89Q489.8 371 489.8 349.34t-12.47-33.76z"/></svg>